<svg xmlns="http://www.w3.org/2000/svg" xmlns:xlink="http://www.w3.org/1999/xlink" width="60px" height="60px" viewBox="0 0 60 60" version="1.1">
    <!-- Generator: Sketch 57 (83077) - https://sketch.com -->
    <title>编组@0.5x</title>
    <desc>Created with Sketch.</desc>
    <defs>
        <polygon id="path-1" points="0 0.151818182 59.2944602 0.151818182 59.2944602 59.0909091 0 59.0909091"/>
    </defs>
    <g id="待办" stroke="none" stroke-width="1" fill="none" fill-rule="evenodd">
        <g id="首页-待办" transform="translate(-92.000000, -231.000000)">
            <g id="编组" transform="translate(92.000000, 231.000000)">
                <polygon id="Fill-1" fill="#E6F3FF" points="4.38363636 55.4458182 54.9109091 55.4458182 54.9109091 22.1721818 4.38363636 22.1721818"/>
                <g transform="translate(0.000000, 0.757636)">
                    <g>
                        <mask id="mask-2" fill="white">
                            <use xlink:href="#path-1"/>
                        </mask>
                        <g id="Clip-3"/>
                        <path d="M43.9780909,3.97581818 L43.9780909,0.151272727 L39.5935455,0.151272727 L39.5935455,3.97581818 L20.3017273,3.97581818 L20.3017273,0.151272727 L15.9171818,0.151272727 L15.9171818,3.97581818 L2.19263636,3.97581818 C0.979,3.97854545 -0.00190909091,4.964 -0.000100961283,6.17763636 L-0.000100961283,56.8894545 C-0.00190909091,58.1030909 0.979,59.0885455 2.19172727,59.0912727 L57.1026364,59.0912727 C58.3153636,59.0885455 59.2971818,58.1030909 59.2944771,56.8894545 L59.2944771,6.17763636 C59.2971818,4.964 58.3162727,3.97854545 57.1026364,3.97581818 L43.9780909,3.97581818 Z" id="Fill-2" fill="#2F448A" mask="url(#mask-2)"/>
                        <polygon id="路径" fill="#FFFFFF" points="4.38354545 54.6885455 54.9108182 54.6885455 54.9108182 21.4149091 4.38354545 21.4149091"/>
                    </g>
                    <polygon id="路径" fill="#E5E9F9" points="54.9108182 17.0121818 4.38354545 17.0121818 4.38354545 8.37854545 15.9153636 8.37854545 15.9153636 12.3385455 20.3017273 12.3385455 20.3017273 8.37854545 39.5935455 8.37854545 39.5935455 12.3385455 43.9780909 12.3385455 43.9780909 8.37854545 54.9108182 8.37854545"/>
                    <polygon id="Fill-4" fill="#FFA000" points="26.1572727 48.8103636 15.4545455 37.7903636 18.5854545 34.7130909 26.1518182 42.504 40.6 27.5794545 43.7354545 30.6521818"/>
                </g>
            </g>
        </g>
    </g>
</svg>