<svg width="57" height="57" xmlns="http://www.w3.org/2000/svg"><path d="M8.58 15.16c3.619 0 6.58-2.96 6.58-6.58C15.16 4.961 12.199 2 8.58 2 4.96 2 2 4.961 2 8.58c0 3.62 2.96 6.58 6.58 6.58zM34.9 28.32c0-3.62-2.961-6.58-6.58-6.58-3.62 0-6.58 2.96-6.58 6.58 0 3.619 2.96 6.58 6.58 6.58 3.619 0 6.58-2.961 6.58-6.58zm13.16 13.16c-3.619 0-6.58 2.96-6.58 6.58 0 3.618 2.961 6.58 6.58 6.58 3.618 0 6.579-2.962 6.579-6.58 0-3.62-2.961-6.58-6.579-6.58zm-10.967 6.803H2m52.64-19.74H39.285m-21.933 0H2m17.546-19.74H54.64" stroke-width="4" stroke="#FFF"/></svg>