<svg width="53" height="61" xmlns="http://www.w3.org/2000/svg"><path d="M22.203 39.884c1.186 0 2.149.944 2.15 2.11 0 1.167-.962 2.113-2.148 2.113H6.448c-1.186 0-2.149.945-2.149 2.11 0 1.167.96 2.113 2.147 2.114h40.106c3.56-.002 6.447 2.833 6.448 6.331.001 3.499-2.883 6.336-6.443 6.338H16.474c-1.187 0-2.149-.945-2.15-2.111 0-1.167.961-2.112 2.148-2.113h30.08c1.186 0 2.148-.944 2.149-2.11 0-1.167-.96-2.112-2.147-2.112H6.448C2.888 52.555 0 49.72 0 46.22c-.001-3.498 2.883-6.335 6.442-6.337h15.761z"/><path d="M40.42 4.861c6.71 6.596 6.57 17.427-.316 24.196-2.432 2.392-6.6 7.533-12.504 15.427-5.973-8.015-10.012-13.057-12.112-15.124-6.71-6.596-6.574-17.427.312-24.195 6.884-6.765 17.904-6.903 24.62-.304zM27.931 10.16c-3.796 0-6.875 3.104-6.875 6.932 0 3.829 3.08 6.929 6.875 6.929 3.796 0 6.875-3.103 6.875-6.929 0-3.828-3.08-6.932-6.875-6.932z"/></svg>