<svg width="68" height="57" xmlns="http://www.w3.org/2000/svg"><path d="M40.285 18.675h18.044m-18.044-6.708h18.044m-9.022 13.416h9.021m-34.871 6.061c-4.511 0-13.533 2.256-13.533 6.767v3.383a1.13 1.13 0 001.128 1.127h24.81a1.13 1.13 0 001.128-1.127v-3.44c0-4.454-9.022-6.71-13.533-6.71zm-.395-15.732c-3.383.169-6.146 2.932-6.372 6.315-.282 3.947 2.876 7.274 6.767 7.274a6.75 6.75 0 006.767-6.766c.055-3.891-3.215-7.048-7.162-6.823zM62.898 2H4.256A2.262 2.262 0 002 4.256v48.289A2.263 2.263 0 004.256 54.8h58.642a2.262 2.262 0 002.256-2.255V4.255a2.26 2.26 0 00-2.256-2.254z" stroke-width="4" stroke="#FFF"/></svg>