<?xml version="1.0" encoding="UTF-8"?>
<svg width="51px" height="60px" viewBox="0 0 51 60" version="1.1" xmlns="http://www.w3.org/2000/svg" xmlns:xlink="http://www.w3.org/1999/xlink">
    <!-- Generator: Sketch 57 (83077) - https://sketch.com -->
    <defs>
        <polygon id="path-1" points="0 0.6064 50.12232 0.6064 50.12232 59.1999282 0 59.1999282"></polygon>
    </defs>
    <g id="三足金乌" stroke="none" stroke-width="1" fill="none" fill-rule="evenodd">
        <g id="首页-城市选择备份-18" transform="translate(-114.000000, -1252.000000)">
            <g id="编组-5" transform="translate(114.000000, 1252.000000)">
                <g id="编组">
                    <polygon id="Fill-1" fill="#FFFFFF" points="4.1952 55.21688 36.4976 55.21688 36.4976 13.48088 4.1952 13.48088"></polygon>
                    <g transform="translate(0.000000, 0.193680)">
                        <g>
                            <mask id="mask-2" fill="white">
                                <use xlink:href="#path-1"></use>
                            </mask>
                            <g id="Clip-3"></g>
                            <path d="M36.49752,55.02312 L36.49752,55.02312 L4.19512,55.02312 L4.19512,13.28712 L36.49752,13.28712 L36.49752,55.02312 Z M48.02472,0.606315391 L10.29032,0.606315391 C9.13512,0.60392 8.19592,1.53912 8.19352,2.69512 L8.19352,9.10952 L2.09752,9.10952 C0.94152,9.10712 0.00232,10.04232 -8e-05,11.19912 L-8e-05,57.11112 C0.00232,58.26792 0.94152,59.20232 2.09752,59.1999282 L38.59512,59.1999282 C39.75032,59.20312 40.68952,58.26792 40.69272,57.11112 L40.69272,51.95992 L48.02392,51.95992 C49.18072,51.96232 50.11992,51.02712 50.12232,49.87192 L50.12232,2.69512 C50.11992,1.53912 49.18072,0.60392 48.02472,0.606315391 L48.02472,0.606315391 Z" id="Fill-2" fill="#2F448A" mask="url(#mask-2)"></path>
                        </g>
                        <path d="M45.92912,47.78248 L45.92672,47.78248 L40.69232,47.78248 L40.69232,11.19848 C40.68992,10.04248 39.75072,9.10728 38.59552,9.10968 L38.59472,9.10968 L12.38912,9.10968 L12.38912,4.78328 L45.92912,4.78328 L45.92912,47.78248 Z" id="Fill-4" fill="#E5E9F9"></path>
                    </g>
                </g>
                <g id="线索管理备份-3" transform="translate(8.000000, 21.600000)" stroke="#2F448A">
                    <path d="M5.22161454,3.06666667 L5.22161454,4.41115929 L18.174663,4.41115929 C20.2476066,4.41115929 21.9336936,6.20135122 21.9336936,8.40228564 C21.9336936,10.6038923 20.2476066,12.3940842 18.174663,12.3940842 L5.22161454,12.3940842 L5.0259702,12.3947565 C2.25465859,12.3947565 0,14.7886256 0,17.7303754 C0,20.6727976 2.25465859,23.0666667 5.0259702,23.0666667 L17.9790186,23.0666667 L17.9790186,21.722174 L5.0259702,21.722174 C2.95302658,21.722174 1.26630642,19.9319821 1.26630642,17.7303754 C1.26630642,15.529441 2.95302658,13.7392491 5.0259702,13.7392491 L17.9790186,13.7392491 L18.174663,13.7385769 C20.9459746,13.7385769 23.2,11.3447077 23.2,8.40228564 C23.2,5.46053578 20.9459746,3.06666667 18.174663,3.06666667 L5.22161454,3.06666667 Z" id="Fill-5" fill="#4069FF"></path>
                    <path d="M5.6,3.46666667 C5.6,5.01367798 4.34650975,6.26666667 2.80032306,6.26666667 C1.25349025,6.26666667 0,5.01367798 0,3.46666667 C0,1.91965536 1.25349025,0.666666667 2.80032306,0.666666667 C4.34650975,0.666666667 5.6,1.91965536 5.6,3.46666667 Z" id="Stroke-1" stroke-width="2" fill="#FFA000"></path>
                    <path d="M23.2,21.8663436 C23.2,23.4131764 21.9465097,24.6666667 20.4003231,24.6666667 C18.8534903,24.6666667 17.6,23.4131764 17.6,21.8663436 C17.6,20.3201569 18.8534903,19.0666667 20.4003231,19.0666667 C21.9465097,19.0666667 23.2,20.3201569 23.2,21.8663436 Z" id="Stroke-3" stroke-width="2" fill="#FFA000"></path>
                </g>
            </g>
        </g>
    </g>
</svg>