<?xml version="1.0" encoding="UTF-8"?>
<svg width="60px" height="49px" viewBox="0 0 60 49" version="1.1" xmlns="http://www.w3.org/2000/svg" xmlns:xlink="http://www.w3.org/1999/xlink">
    <!-- Generator: Sketch 57 (83077) - https://sketch.com -->

    <defs>
        <polygon id="path-1" points="0 0.60804878 28.0624946 0.60804878 41.1173229 0.60804878 41.1173229 48.2629756 0 48.2629756"></polygon>
        <polygon id="path-3" points="0.47604878 0.60804878 25.038037 0.60804878 25.038037 48.2924634 0.47604878 48.2924634"></polygon>
    </defs>
    <g id="三足金乌" stroke="none" stroke-width="1" fill="none" fill-rule="evenodd">
        <g id="首页-城市选择备份-18" transform="translate(-92.000000, -270.000000)">
            <g id="客户管理" transform="translate(92.000000, 270.000000)">
                <path d="M9.6512877,15.7325122 C9.72753659,9.70909756 14.6731463,4.88860976 20.696561,4.96470732 C26.7199756,5.04153659 31.5404634,9.98641463 31.4636341,16.0098293 C31.3875366,21.9790976 26.5268049,26.7783659 20.5575366,26.7783659 C14.499,26.7322683 9.61997561,21.7910488 9.6512877,15.7325122" id="Fill-1" fill-opacity="0.2" fill="#7F8FE1"></path>
                <g id="编组" transform="translate(0.000000, 0.123951)">
                    <mask id="mask-2" fill="white">
                        <use xlink:href="#path-1"></use>
                    </mask>
                    <g id="Clip-4"></g>
                    <path d="M20.5577561,26.6541951 C14.4984878,26.6088293 9.62019512,21.6676098 9.65150719,15.6083415 C9.7277561,9.58492683 14.6733659,4.76443902 20.6960488,4.84053659 C26.7194634,4.91736585 31.5399512,9.86297561 31.4638537,15.8856585 C31.3877561,21.8549268 26.5270244,26.6541951 20.5577561,26.6541951 M27.7043415,28.7424878 C32.4465366,26.0724878 35.3770244,21.0500488 35.3682439,15.6083415 C35.3682439,7.33712195 28.7243415,0.607609756 20.5577561,0.607609756 C12.3911707,0.607609756 5.74653659,7.33712195 5.74653659,15.6083415 C5.7377561,21.0507805 8.6682439,26.0724878 13.4111707,28.7424878 C5.31921951,31.8302927 -0.0200487805,39.6010244 -0.00034732255,48.2629756 L3.90482927,48.2629756 C3.90482927,38.9629756 11.3748293,31.3949268 20.5584878,31.3949268 C29.7421463,31.3949268 37.212878,38.9615122 37.212878,48.2629756 L41.1173229,48.2629756 C41.1370244,39.6002927 35.7970244,31.829561 27.7043415,28.7424878" id="Fill-3" fill="#2F448A" mask="url(#mask-2)"></path>
                </g>
                <g id="编组" transform="translate(34.390244, 0.123951)">
                    <mask id="mask-4" fill="white">
                        <use xlink:href="#path-3"></use>
                    </mask>
                    <g id="Clip-6"></g>
                    <path d="M23.0858049,0.607829268 L0.47604878,0.607829268 L0.47604878,4.56197561 L21.1336098,4.56197561 L21.1336098,44.3383171 L10.5392195,44.3383171 L10.5392195,48.2924634 L23.0858049,48.2924634 C24.1709268,48.2851463 25.0445854,47.4005122 25.038037,46.3153902 L25.038037,2.58490244 C25.0445854,1.49978049 24.1709268,0.615146341 23.0858049,0.607829268" id="Fill-5" fill="#2F448A" mask="url(#mask-4)"></path>
                </g>
                <path d="M52.2701707,37.9680732 L43.7706585,37.9680732 L43.7706585,34.0124634 L52.2716341,34.0124634 L52.2716341,37.9680732 L52.2701707,37.9680732 Z M39.897,26.5519756 L52.2701707,26.5519756 L52.2701707,22.5963659 L39.897,22.5963659 L39.897,26.5519756 Z M39.897,15.135878 L52.2701707,15.135878 L52.2701707,11.1802683 L39.897,11.1802683 L39.897,15.135878 Z" id="Fill-7" fill="#FFA000"></path>
            </g>
        </g>
    </g>
</svg>