<?xml version="1.0" encoding="UTF-8"?>
<svg width="62px" height="49px" viewBox="0 0 62 49" version="1.1" xmlns="http://www.w3.org/2000/svg" xmlns:xlink="http://www.w3.org/1999/xlink">
    <!-- Generator: Sketch 57 (83077) - https://sketch.com -->

    <defs>
        <polygon id="path-1" points="0.482587912 0.588382867 25.3819661 0.588382867 25.3819661 46.7305568 0.482587912 46.7305568"></polygon>
    </defs>
    <g id="三足金乌" stroke="none" stroke-width="1" fill="none" fill-rule="evenodd">
        <g id="首页-城市选择备份-18" transform="translate(-93.000000, -600.000000)">
            <g id="编组-2" transform="translate(95.000000, 600.000000)">
                <g id="编组备份-2" transform="translate(34.038462, 0.000000)">
                    <g id="编组">
                        <mask id="mask-2" fill="white">
                            <use xlink:href="#path-1"></use>
                        </mask>
                        <g id="Clip-6"></g>
                        <path d="M23.4029176,0.588170455 L0.482587912,0.588170455 L0.482587912,4.4144292 L21.4239066,4.4144292 L21.4239066,42.9042981 L10.683989,42.9042981 L10.683989,46.7305568 L23.4029176,46.7305568 C24.5029451,46.7234764 25.3886044,45.8674537 25.3819661,44.8174274 L25.3819661,2.50129983 C25.3886044,1.4512736 24.5029451,0.595250874 23.4029176,0.588170455" id="Fill-5" fill="#2F448A" mask="url(#mask-2)"></path>
                    </g>
                    <path d="M18.1716442,37.2115385 L9.8501974,37.2115385 L9.8501974,33.377939 L18.1730769,33.377939 L18.1730769,37.2115385 L18.1716442,37.2115385 Z M6.05769231,26.147569 L18.1716442,26.147569 L18.1716442,22.3139695 L6.05769231,22.3139695 L6.05769231,26.147569 Z M6.05769231,15.0835995 L18.1716442,15.0835995 L18.1716442,11.25 L6.05769231,11.25 L6.05769231,15.0835995 Z" id="Fill-7" fill="#FFA000"></path>
                </g>
                <g id="司机管理备份" transform="translate(0.000000, 1.615385)" stroke="#2F448A">
                    <path d="M28.875,9.46153846 C28.875,14.5597633 24.7424556,18.6923077 19.6442308,18.6923077 C14.5460059,18.6923077 10.4134615,14.5597633 10.4134615,9.46153846 C10.4134615,4.36331361 14.5460059,0.230769231 19.6442308,0.230769231 C24.7424556,0.230769231 28.875,4.36331361 28.875,9.46153846 Z" id="Stroke-3" stroke-width="3" fill-opacity="0.2" fill="#7F8FE1"></path>
                    <path d="M24.7788462,22.7307692 L19.1538462,33.9807692" id="Stroke-5" stroke-width="2"></path>
                    <path d="M26.8442068,43.7884615 C27.1816147,42.8923542 27.375,41.9293061 27.375,40.9206932 C27.375,36.2910867 23.5003255,32.5384615 18.7214442,32.5384615 C13.9419822,32.5384615 10.0673077,36.2910867 10.0673077,40.9206932 C10.0673077,41.9293061 10.260693,42.8923542 10.5981009,43.7884615 L26.8442068,43.7884615 Z" id="Stroke-7" stroke-width="2" fill-opacity="0.2" fill="#7F8FE1"></path>
                    <path d="M4.07069155,44.5384615 L0.792137395,39.7458285 C-0.220038165,38.265493 -0.262212147,36.4560163 0.66561545,34.9482525 L0.792137395,34.7533505 L8.17706497,23.9574737 C9.18924053,22.4771383 11.0249903,21.5418386 13.0359946,21.4664669 L13.2992402,21.4615385 L20.307,21.4615385 L25.4699906,21.4615385 L25.7332361,21.4664669 C27.7442405,21.5418386 29.5799902,22.4771383 30.5921658,23.9574737 L30.5921658,23.9574737 L37.9770934,34.7533505 L38.1036153,34.9482525 C39.0314429,36.4560163 38.9892689,38.265493 37.9770934,39.7458285 L37.9770934,39.7458285 L34.6985392,44.5384615 L18.4622308,44.5375385 L4.07069155,44.5384615 Z" id="形状结合" stroke-width="4"></path>
                </g>
            </g>
        </g>
    </g>
</svg>