<?xml version="1.0" encoding="UTF-8"?>
<svg width="60px" height="61px" viewBox="0 0 60 61" version="1.1" xmlns="http://www.w3.org/2000/svg" xmlns:xlink="http://www.w3.org/1999/xlink">
    <!-- Generator: Sketch 57 (83077) - https://sketch.com -->
    <defs>
        <polygon id="path-1" points="0.000493150685 0.643561644 59.4489863 0.643561644 59.4489863 60.8216793 0.000493150685 60.8216793"></polygon>
        <polygon id="path-3" points="0 61.0005205 59.4493151 61.0005205 59.4493151 0.822164384 0 0.822164384"></polygon>
    </defs>
    <g id="三足金乌" stroke="none" stroke-width="1" fill="none" fill-rule="evenodd">
        <g id="首页-城市选择备份-18" transform="translate(-595.000000, -919.000000)">
            <g id="编组" transform="translate(595.000000, 919.000000)">
                <g transform="translate(0.000000, 0.178603)">
                    <mask id="mask-2" fill="white">
                        <use xlink:href="#path-1"></use>
                    </mask>
                    <g id="Clip-2"></g>
                    <path d="M54.9350137,50.8287945 L54.9333699,50.8287945 C54.9226849,53.8707123 52.452,56.3307123 49.4092603,56.3274279 L49.1174795,56.3274279 L49.1174795,37.6855068 L54.9350137,37.6855068 L54.9350137,50.8287945 Z M4.51528767,56.3266027 L44.6010411,56.3266027 L44.6010411,5.13838356 L4.51528767,5.13838356 L4.51528767,56.3266027 Z M57.192,33.1904384 L49.1158356,33.1904384 L49.1158356,2.89126027 C49.1133699,1.64687671 48.102411,0.640027397 46.8580274,0.64330704 L2.25830137,0.64330704 C1.01391781,0.640027397 0.00295890411,1.64687671 0.000493150685,2.89126027 L0.000493150685,58.5745479 C0.00295890411,59.8189315 1.01391781,60.8249589 2.25830137,60.8216793 L49.4092603,60.8216793 C54.9383014,60.8274247 59.4292603,56.3578356 59.4489863,50.8287945 L59.4489863,35.4375616 C59.4456986,34.194 58.4355616,33.1879726 57.192,33.1904384 L57.192,33.1904384 Z" id="Fill-1" fill="#2F448A" mask="url(#mask-2)"></path>
                </g>
                <mask id="mask-4" fill="white">
                    <use xlink:href="#path-3"></use>
                </mask>
                <g id="Clip-4"></g>
                <polygon id="Fill-3" mask="url(#mask-4)" points="4.51561644 56.5054521 44.6013699 56.5054521 44.6013699 5.31723288 4.51561644 5.31723288"></polygon>
                <path d="M54.9334521,51.0073973 C54.9227671,54.0493151 52.4520822,56.5093151 49.4093425,56.5060307 L49.1175616,56.5060307 L49.1175616,37.8641096 L54.9350959,37.8641096 L54.9350959,51.0073973 L54.9334521,51.0073973 Z" id="Fill-5" fill-opacity="0.2" fill="#7F8FE1" mask="url(#mask-4)"></path>
                <polygon id="Fill-6" fill="#FFA000" mask="url(#mask-4)" points="34.7832329 19.0946301 31.2029589 16.3527123 25.2481644 24.0507945 18.5281644 16.6946301 15.1854247 19.7192877 21.6054247 26.7466849 15.7607671 26.7466849 15.7607671 31.2417534 22.6648767 31.2417534 22.6648767 35.1549041 15.7607671 35.1549041 15.7607671 39.6499726 22.6648767 39.6499726 22.6648767 45.5784658 27.1829589 45.5784658 27.1829589 39.6499726 34.0870685 39.6499726 34.0870685 35.1540822 27.1829589 35.1540822 27.1829589 31.2417534 34.0870685 31.2417534 34.0870685 26.7466849 28.8646027 26.7466849"></polygon>
            </g>
        </g>
    </g>
</svg>