<?xml version="1.0" encoding="UTF-8"?>
<svg width="59px" height="59px" viewBox="0 0 59 59" version="1.1" xmlns="http://www.w3.org/2000/svg" xmlns:xlink="http://www.w3.org/1999/xlink">
    <!-- Generator: Sketch 57 (83077) - https://sketch.com -->
    <title>打分icon@2x</title>
    <desc>Created with Sketch.</desc>
    <g id="赋能打分" stroke="none" stroke-width="1" fill="none" fill-rule="evenodd">
        <g id="首页" transform="translate(-101.000000, -1464.000000)">
            <g id="打分icon" transform="translate(102.000000, 1465.000000)">
                <path d="M45.4017919,7.50463425 L49.5279208,11.6307305 L51.5769796,9.58253665 C52.9002947,8.25923197 53.052234,6.25602541 51.9139623,5.11861151 C50.7765395,3.98119762 48.7741659,4.13228692 47.4508508,5.45644042 L45.4017919,7.50463425 Z M49.5279208,16.4333333 L40.6,7.50463425 L45.0495304,3.0559878 C47.6970095,0.408529638 51.8536959,0.256591513 54.3152827,2.71731008 C56.7768695,5.17972629 56.6249302,9.33553109 53.9774511,11.9829893 L49.5279208,16.4333333 Z" id="Fill-1" fill="#FFA000"></path>
                <path d="M39.7253352,13.4659449 L19.748036,34.0310353 C19.0368409,34.7623134 18.7454882,37.1263299 18.7454882,39.158424 C20.6859297,39.1609343 22.9913804,38.8837563 23.7263093,38.1263611 L43.7036086,17.5612708 L39.7253352,13.4659449 Z M15.6551858,42.3396351 L15.5389721,40.9217307 C15.4464922,39.7936415 15.1043983,34.0462 17.4327644,31.6484841 L39.7253352,8.7 L48.3333333,17.5612708 L26.0407625,40.5097549 C23.7123964,42.9066284 18.1284098,42.5536266 17.0325637,42.4592681 L15.6551858,42.3396351 Z" id="Fill-3" fill="#FFA000"></path>
                <path d="M8.37391917,57.1595884 C3.75673534,57.1595884 8.3872549e-05,53.3946319 8.3872549e-05,48.7672406 L8.3872549e-05,8.53121159 C8.3872549e-05,3.90382029 3.75673534,0.138023188 8.37391917,0.138023188 L28.4471363,0.138023188 C30.8819564,0.138023188 32.76825,0.88613913 34.0531775,2.35883478 C34.7359,3.14645797 35.2013927,4.06184928 35.4362358,5.0797913 C35.5872064,5.73124058 35.4345584,6.40790725 35.0168731,6.93326957 C34.5933167,7.46871884 33.9584015,7.77553043 33.2748402,7.77553043 C32.2348206,7.77553043 31.3482878,7.07028406 31.1201545,6.06074783 C31.0371206,5.70938551 30.9071182,5.4319942 30.7318246,5.23613913 C30.3166554,4.77045797 29.5475442,4.53509565 28.4471363,4.53509565 L8.37391917,4.53509565 C6.17897456,4.53509565 4.39248926,6.32468986 4.39248926,8.52532754 L4.39248926,48.7672406 C4.39248926,50.9670377 6.17897456,52.7574725 8.37391917,52.7574725 L42.3490113,52.7574725 C47.9516976,52.7574725 52.5084932,48.1889217 52.5084932,42.5746899 L52.5084932,28.6757043 C52.5084932,27.4896464 52.130228,26.7894435 51.2420177,26.3330087 C50.5400045,25.9732406 49.8044422,25.9219652 49.7230858,25.9169217 C48.5203535,25.8891826 47.5591741,24.8813275 47.586852,23.6692116 C47.6136912,22.460458 48.5773868,21.5139652 49.7809579,21.5139652 C49.9612839,21.5156464 51.5850564,21.5585159 53.2457329,22.4091826 C55.6033902,23.6246609 56.9017373,25.8479942 56.9017373,28.6689797 L56.9017373,42.5746899 C56.9017373,50.6173565 50.3739368,57.1595884 42.3490113,57.1595884 L8.37391917,57.1595884 Z" id="Fill-5" stroke="#2A428F" fill="#2F448A"></path>
            </g>
        </g>
    </g>
</svg>