<?xml version="1.0" encoding="UTF-8"?>
<svg width="50px" height="53px" viewBox="0 0 50 53" version="1.1" xmlns="http://www.w3.org/2000/svg" xmlns:xlink="http://www.w3.org/1999/xlink">
    <!-- Generator: Sketch 57 (83077) - https://sketch.com -->
    <defs>
        <polygon id="path-1" points="0 0 50 0 50 53 0 53"></polygon>
    </defs>
    <g id="三足金乌" stroke="none" stroke-width="1" fill="none" fill-rule="evenodd">
        <g id="首页-城市选择备份-20" transform="translate(-120.000000, -1246.000000)">
            <g id="编组" transform="translate(120.000000, 1246.000000)">
                <mask id="mask-2" fill="white">
                    <use xlink:href="#path-1"></use>
                </mask>
                <g id="Clip-2"></g>
                <path d="M29.9076327,44.7091568 C29.9076327,46.4589897 28.4874243,47.8902496 26.7504457,47.8902496 L23.291604,47.8902496 C21.5546254,47.8902496 20.134417,46.4589897 20.134417,44.7091568 L20.134417,29.7925271 C20.134417,28.0426942 21.5546254,26.610772 23.291604,26.610772 L26.7504457,26.610772 C28.4874243,26.610772 29.9076327,28.0426942 29.9076327,29.7925271 L29.9076327,44.7091568 Z M49.75309,16.7317005 L25.3124929,0.0963666469 C25.1238766,-0.0321222156 24.8767696,-0.0321222156 24.6881533,0.0963666469 L0.246241735,16.7317005 C-0.20919761,17.0416633 0.00899266786,17.758949 0.558411561,17.758949 L0.704967079,17.758949 L0.704967079,48.562498 C0.704967079,51.0031241 2.68642397,53 5.10820462,53 L44.9338451,53 C47.3556258,53 49.3364255,51.0031241 49.3364255,48.562498 L49.3364255,17.758949 L49.4415774,17.758949 C49.9916535,17.758949 50.2091866,17.0416633 49.75309,16.7317005 L49.75309,16.7317005 Z" id="Fill-1" fill="#2F448A" mask="url(#mask-2)"></path>
            </g>
        </g>
    </g>
</svg>