<svg xmlns="http://www.w3.org/2000/svg" xmlns:xlink="http://www.w3.org/1999/xlink" width="24px" height="24px" viewBox="0 0 24 24" version="1.1">
    <!-- Generator: Sketch 57 (83077) - https://sketch.com -->
    <title>icon-年龄 2@1x</title>
    <desc>Created with Sketch.</desc>
    <g id="待办" stroke="none" stroke-width="1" fill="none" fill-rule="evenodd">
        <g id="首页_待办_我的待办" transform="translate(-40.000000, -610.000000)" fill="#A6AAB8">
            <g id="icon-年龄-2" transform="translate(40.000000, 610.000000)">
                <path d="M11.9987621,22.2857143 C17.6794186,22.286457 22.2850953,17.6818944 22.2857143,12.0012379 C22.286457,6.32070518 17.6818944,1.71502845 12.0013617,1.71428571 L11.9987621,1.71428571 C6.31810562,1.71502845 1.71366677,6.32070518 1.71428571,12.0012379 C1.71502845,17.6809041 6.31909593,22.2849716 11.9987621,22.2857143 L11.9987621,22.2857143 Z M12.0010939,24 C5.37129661,24 0,18.6276095 0,12 C0,5.37239053 5.37129661,0 12,0 C18.6265155,0 24,5.37239053 24,12 C24,18.6276095 18.6265155,24 12,24 L12.0010939,24 Z M12.4207245,11.4828825 L17.4724941,11.4828825 C17.9545357,11.4595772 18.3641538,11.8324611 18.3874008,12.3157086 C18.4106479,12.7988442 18.0388064,13.209487 17.5567647,13.2329043 C17.5287118,13.2342488 17.500547,13.2342488 17.4724941,13.2329043 L11.5672884,13.2329043 C11.5604707,13.2329043 11.5536531,13.2329043 11.5469472,13.2329043 C11.0651291,13.2317838 10.6751817,12.8398524 10.6751817,12.3568289 L10.6751817,6.43785842 C10.6519346,5.95461084 11.0237761,5.54396804 11.5058177,5.5206628 C11.9878594,5.49735756 12.3974774,5.87012934 12.4207245,6.35337692 C12.4220657,6.38150007 12.4220657,6.40973527 12.4207245,6.43785842 L12.4207245,11.4840029 L12.4207245,11.4828825 Z" id="icon-年龄"/>
            </g>
        </g>
    </g>
</svg>