<?xml version="1.0" encoding="UTF-8"?>
<svg width="62px" height="51px" viewBox="0 0 62 51" version="1.1" xmlns="http://www.w3.org/2000/svg" xmlns:xlink="http://www.w3.org/1999/xlink">
    <!-- Generator: Sketch 57 (83077) - https://sketch.com -->
    <g id="三足金乌" stroke="none" stroke-width="1" fill="none" fill-rule="evenodd">
        <g id="首页-城市选择备份-18" transform="translate(-343.000000, -923.000000)">
            <g id="加盟运费备份" transform="translate(345.000000, 925.000000)">
                <path d="M36.6385375,38.8478776 C36.6385375,34.4866128 38.7747036,30.6340436 42.0492095,28.2488657 L32.6241107,18.4289052 C30.8632411,19.6214942 28.908498,20.149755 26.7607708,20.0190238 C24.6139328,19.8882926 22.7836957,18.9678381 21.2833992,17.2629962 C19.5741107,15.5074626 18.7212451,13.4344388 18.7212451,11.0537076 C18.7212451,8.67297639 19.5741107,6.59906335 21.2833992,4.83730445 L24.7046443,1.41694872 C22.9428854,0.280387458 21.1304348,-0.173169855 19.2664032,0.0589447698 C17.4032609,0.291948722 15.6130435,1.11013054 13.9090909,2.50815426 L2.56304348,14.4678381 C0.852865613,16.2295969 -4.54747351e-13,18.2119092 -4.54747351e-13,20.4112175 C-4.54747351e-13,22.6158618 0.852865613,24.6212965 2.56304348,26.4337471 L17.3232213,41.7346365 C20.1699605,45.1549922 23.5618577,46.8589448 27.4998024,46.8589448 L30.375,46.8589448 C30.6355731,46.8589448 30.9317194,46.8367116 31.2661067,46.7797946 C31.6013834,46.7291029 32.05583,46.5752491 32.6241107,46.314676 L36.0453557,44.6044981 C36.3575099,44.3430357 36.6527668,44.1491622 36.9364625,44.0184309 C37.1463439,43.9223835 37.347332,43.7792017 37.5447628,43.6128973 C36.9666996,42.1348341 36.6385375,40.5313756 36.6385375,38.8478776 Z" id="Stroke-1" stroke="#2F448A" stroke-width="4" fill-opacity="0.2" fill="#7F8FE1"></path>
                <path d="M49.7561265,25.7302886 C51.302668,25.7302886 52.7798419,26.0113163 54.1583004,26.5031147 L54.2214427,26.4284112 C55.9307312,24.6159606 56.7827075,22.6105258 56.7827075,20.4058815 C56.7827075,18.2074626 55.9307312,16.2233716 54.2214427,14.4625021 L42.8807312,2.50192896 C42.0500988,1.93453766 41.169664,1.42850999 40.2376482,0.985624612 C39.3065217,0.548075205 38.2837945,0.315071252 37.1703557,0.286612754 C36.0560277,0.263490224 35.0448617,0.417343979 34.1413043,0.752620659 C33.2324111,1.08789734 32.3688735,1.6730752 31.5400198,2.50192896 L25.7896245,8.79748232 C24.9598814,9.41734398 24.5454545,10.1723835 24.5454545,11.0537076 C24.5454545,11.9341424 24.9598814,12.683846 25.7896245,13.3037076 C26.4085968,13.8719882 27.0853755,14.1556839 27.8057312,14.1556839 C28.5340909,14.1556839 29.2046443,13.8719882 29.8227273,13.3037076 L30.9085968,12.2187274 C31.2216403,11.9056839 31.6076087,11.7233716 32.0736166,11.6726799 C32.5502964,11.6210989 32.9255929,11.5935298 33.2101779,11.5935298 C33.4938735,11.5935298 33.7775692,11.6442214 34.0621542,11.7464942 C34.3458498,11.8541029 34.6188735,12.1893796 34.880336,12.7576602 L47.6733202,25.9108222 C48.3527668,25.8023242 49.0455534,25.7302886 49.7561265,25.7302886 Z" id="Stroke-3" stroke="#2F448A" stroke-width="4"></path>
                <path d="M53.7772233,40.0128973 C54.0902668,40.0128973 54.3357213,40.1027195 54.5153656,40.2796958 C54.6923419,40.456672 54.782164,40.6985693 54.782164,41.0018301 C54.782164,41.3059803 54.6923419,41.5514349 54.5153656,41.7399724 C54.3383893,41.9293993 54.0920455,42.0236681 53.7772233,42.0236681 L50.7588439,42.0236681 L50.7588439,43.6262373 C50.7588439,43.9401701 50.6690217,44.1882926 50.4920455,44.3652689 C50.3150692,44.5422452 50.0669466,44.6320673 49.7539032,44.6320673 C49.4408597,44.6320673 49.1927372,44.5449131 49.0157609,44.3652689 C48.8378953,44.1882926 48.7480731,43.9419487 48.7480731,43.6262373 L48.7480731,42.0236681 L45.730583,42.0236681 C45.4175395,42.0236681 45.1685277,41.9293993 44.9915514,41.7399724 C44.8145751,41.5514349 44.724753,41.3059803 44.724753,41.0018301 C44.724753,40.6985693 44.8119071,40.4584507 44.9915514,40.2796958 C45.1685277,40.1027195 45.4148715,40.0128973 45.730583,40.0128973 L48.7507411,40.0128973 L48.7507411,38.7865139 L45.730583,38.7865139 C45.4175395,38.7865139 45.1685277,38.6993598 44.9915514,38.5197155 C44.8145751,38.3427392 44.724753,38.1017313 44.724753,37.7975811 C44.724753,37.4934309 44.8119071,37.2542017 44.9915514,37.0754467 C45.1685277,36.8984705 45.4148715,36.7970871 45.730583,36.7757432 L47.5545949,36.7757432 L45.5411561,34.7631938 C45.332164,34.5533124 45.226334,34.3238657 45.226334,34.0704072 C45.226334,33.8178381 45.332164,33.5875021 45.5411561,33.37851 C45.7510375,33.1695179 45.9804842,33.0636879 46.2339427,33.0636879 C46.4874012,33.0636879 46.7177372,33.1695179 46.9267292,33.37851 L49.7565711,36.1781147 L52.5855237,33.37851 C52.7954051,33.1695179 53.0248518,33.0636879 53.2774209,33.0636879 C53.5308794,33.0636879 53.7612154,33.1695179 53.9702075,33.37851 C54.1800889,33.5875021 54.2850296,33.8178381 54.2850296,34.0704072 C54.2850296,34.3238657 54.1800889,34.5533124 53.9702075,34.7631938 L51.9576581,36.7757432 L53.78167,36.7757432 C54.0947134,36.7970871 54.3410573,36.8984705 54.5198123,37.0754467 C54.6976779,37.252423 54.7866107,37.4934309 54.7866107,37.7975811 C54.7866107,38.1017313 54.6976779,38.3427392 54.5198123,38.5197155 C54.342836,38.6966918 54.0964921,38.7865139 53.78167,38.7865139 L50.7632905,38.7865139 L50.7632905,40.0128973 L53.7772233,40.0128973 Z M49.7565711,29.1204072 C44.383251,29.1204072 40.0291008,33.4754467 40.0291008,38.8478776 C40.0291008,44.2194191 44.383251,48.5744586 49.7565711,48.5744586 C55.1281126,48.5744586 59.4831522,44.2194191 59.4831522,38.8478776 C59.4831522,33.4754467 55.1281126,29.1204072 49.7565711,29.1204072 L49.7565711,29.1204072 Z" id="Fill-5" fill="#FFA000"></path>
            </g>
        </g>
    </g>
</svg>