<?xml version="1.0" encoding="UTF-8"?>
<svg width="64px" height="64px" viewBox="0 0 64 64" version="1.1" xmlns="http://www.w3.org/2000/svg" xmlns:xlink="http://www.w3.org/1999/xlink">
    <!-- Generator: Sketch 57 (83077) - https://sketch.com -->
    <defs>
        <polygon id="path-1" points="0.101014773 0.762915263 17.324642 0.762915263 17.324642 23.9675896 0.101014773 23.9675896"></polygon>
    </defs>
    <g id="三足金乌" stroke="none" stroke-width="1" fill="none" fill-rule="evenodd">
        <g id="首页-城市选择备份-18" transform="translate(-601.000000, -263.000000)">
            <g id="编组-4" transform="translate(603.000000, 265.000000)">
                <circle id="椭圆形" stroke="#2F448A" stroke-width="3" cx="30" cy="30" r="30"></circle>
                <g id="编组" transform="translate(13.000000, 13.000000)">
                    <path d="M27.6087207,16.1617688 C26.9111293,16.7515625 26.0196826,17.1063313 25.0475228,17.1063313 C24.5221674,17.1063313 24.0213141,16.9992313 23.561538,16.8118063 L16.6396739,18.9203375 L7.09103261,15.45 L0.425,32.928125 L10.1538043,29.58125 L17.5404891,33.3 L25.467663,29.58125 L33.575,32.7421875 L27.6087207,16.1617688 Z" id="Fill-1" fill-opacity="0.2" fill="#7F8FE1"></path>
                    <path d="M27.6087207,16.1617688 C26.9111293,16.7515625 26.0196826,17.1063313 25.0475228,17.1063313 C24.5221674,17.1063313 24.0213141,16.9992313 23.561538,16.8118063 L16.6396739,18.9203375 L7.09103261,15.45 L0.425,32.928125 L10.1538043,29.58125 L17.5404891,33.3 L25.467663,29.58125 L33.575,32.7421875 L27.6087207,16.1617688 Z" id="Stroke-3" stroke="#2F448A" stroke-width="3"></path>
                    <g transform="translate(17.000000, 0.000000)">
                        <mask id="mask-2" fill="white">
                            <use xlink:href="#path-1"></use>
                        </mask>
                        <g id="Clip-6"></g>
                        <path d="M8.71282841,13.9747838 C6.19760114,13.9747838 4.15864432,11.9286727 4.15864432,9.40462011 C4.15864432,6.88056747 6.19760114,4.83364221 8.71282841,4.83364221 C11.2280557,4.83364221 13.2670125,6.88056747 13.2670125,9.40462011 C13.2670125,11.9286727 11.2280557,13.9747838 8.71282841,13.9747838 M8.71282841,0.762589579 C3.95661477,0.762589579 0.101014773,4.631718 0.101014773,9.40462011 C0.101014773,14.1775222 8.71282841,23.9675896 8.71282841,23.9675896 C8.71282841,23.9675896 17.324642,14.1775222 17.324642,9.40462011 C17.324642,4.631718 13.469042,0.762589579 8.71282841,0.762589579" id="Fill-5" fill="#2F448A" mask="url(#mask-2)"></path>
                    </g>
                    <path d="M8.35,13.7434629 C6.86063206,13.7434629 5.65305567,12.5441696 5.65305567,11.0650177 C5.65305567,9.58586572 6.86063206,8.38586572 8.35,8.38586572 C9.83936794,8.38586572 11.0476559,9.58586572 11.0476559,11.0650177 C11.0476559,12.5441696 9.83936794,13.7434629 8.35,13.7434629 M8.35,6 C5.53350774,6 3.25,8.26784452 3.25,11.0650177 C3.25,13.8621908 8.35,19.6 8.35,19.6 C8.35,19.6 13.45,13.8621908 13.45,11.0650177 C13.45,8.26784452 11.1664923,6 8.35,6" id="Fill-7" fill="#FFA000"></path>
                </g>
            </g>
        </g>
    </g>
</svg>