<?xml version="1.0" encoding="UTF-8"?>
<svg width="60px" height="53px" viewBox="0 0 60 53" version="1.1" xmlns="http://www.w3.org/2000/svg" xmlns:xlink="http://www.w3.org/1999/xlink">
    <!-- Generator: Sketch 57 (83077) - https://sketch.com -->
    <defs>
        <polygon id="path-1" points="0 0.645176471 59.7711111 0.645176471 59.7711111 52.9411765 0 52.9411765"></polygon>
    </defs>
    <g id="三足金乌" stroke="none" stroke-width="1" fill="none" fill-rule="evenodd">
        <g id="首页-城市选择备份-18" transform="translate(-348.000000, -268.000000)">
            <g id="编组" transform="translate(348.000000, 268.000000)">
                <polygon id="Fill-1" fill-opacity="0.2" fill="#7F8FE1" points="4.52068235 47.7441882 10.5206824 47.7441882 10.5206824 16.4630118 4.52068235 16.4630118 4.52068235 47.7456"></polygon>
                <polygon id="Fill-2" fill-opacity="0.2" fill="#7F8FE1" points="39.8333647 17.8238118 48.3307765 47.9148706 54.7154824 46.0866353 46.2194824 15.9955765"></polygon>
                <polygon id="Fill-3" fill-opacity="0.2" fill="#7F8FE1" points="22.4882824 47.7441882 28.7960471 47.7441882 28.7960471 5.25924706 22.4868706 5.25924706 22.4868706 47.7456"></polygon>
                <path d="M30.1881882,14.658 L20.2783059,14.658 L20.2783059,10.1015294 L30.1896,10.1015294 L30.1896,14.658 L30.1881882,14.658 Z M40.7721882,27.1323529 L39.5354824,22.7495294 L49.1227765,20.0008235 L50.3587765,24.3836471 L40.7721882,27.1323529 Z M1.40583529,25.8737647 L11.3157176,25.8737647 L11.3157176,21.3172941 L1.40583529,21.3172941 L1.40583529,25.8737647 Z" id="Fill-4" fill="#FFA000"></path>
                <g transform="translate(0.000000, 0.060918)">
                    <mask id="mask-2" fill="white">
                        <use xlink:href="#path-1"></use>
                    </mask>
                    <g id="Clip-6"></g>
                    <path d="M4.52047059,47.6830588 L10.5204706,47.6830588 L10.5204706,16.4018824 L4.52047059,16.4018824 L4.52047059,47.6830588 Z M2.26023529,11.8489412 C1.00729412,11.8531765 -0.00494117647,12.8731765 -8.8772628e-05,14.1254118 L-8.8772628e-05,49.9595294 C-0.00423529412,51.2131765 1.008,52.2324706 2.26023529,52.2367059 L12.7807059,52.2367059 C14.0343529,52.2324706 15.0458824,51.2131765 15.0423985,49.9602353 L15.0423985,14.1254118 C15.0458824,12.8717647 14.0343529,11.8531765 12.7807059,11.8489412 L2.26023529,11.8489412 Z" id="Fill-5" fill="#2F448A" mask="url(#mask-2)"></path>
                    <path d="M48.3308471,47.8538824 L39.8334353,17.7628235 L46.2195529,15.9345882 L54.7155529,46.0256471 L48.3308471,47.8538824 Z M59.6835529,46.9708235 L49.9501412,12.5018824 C49.7870824,11.9223529 49.4009647,11.4310588 48.8757882,11.136 C48.3527294,10.8423529 47.7336706,10.7703529 47.1569647,10.9348235 L36.4226118,14.0082353 C35.2183765,14.3569412 34.5223765,15.6127059 34.8661412,16.8183529 L44.6002588,51.2872941 C44.7633176,51.8675294 45.1494353,52.3581176 45.6739059,52.6531765 C46.0106118,52.8416471 46.3889647,52.9411765 46.7743765,52.9411765 C46.9840235,52.9411765 47.1915529,52.9122353 47.3927294,52.8543529 L58.1270824,49.7809412 C59.3313176,49.4322353 60.0266118,48.1764706 59.6835529,46.9708235 L59.6835529,46.9708235 Z" id="Fill-7" fill="#2F448A" mask="url(#mask-2)"></path>
                    <path d="M28.7956941,47.6832706 L22.4879294,47.6832706 L22.4865176,47.6846824 L22.4865176,5.19832941 L28.7956941,5.19832941 L28.7956941,47.6832706 Z M31.0573412,0.644682353 L20.2262824,0.644682353 L20.2255765,0.644682353 C18.9733412,0.649623529 17.9611059,1.66891765 17.966029,2.92185882 L17.966029,49.9597412 L17.966029,49.9604471 C17.9611059,51.2126824 18.9733412,52.2319765 20.2262824,52.2369176 L31.0573412,52.2369176 C32.3102824,52.2319765 33.3218118,51.2133882 33.3175945,49.9604471 L33.3175945,2.92185882 L33.3175945,2.92115294 C33.3225176,1.66821176 32.3102824,0.649623529 31.0573412,0.644682353 L31.0573412,0.644682353 Z" id="Fill-8" fill="#2F448A" mask="url(#mask-2)"></path>
                </g>
            </g>
        </g>
    </g>
</svg>