<?xml version="1.0" encoding="UTF-8"?>
<svg width="60px" height="56px" viewBox="0 0 60 56" version="1.1" xmlns="http://www.w3.org/2000/svg" xmlns:xlink="http://www.w3.org/1999/xlink">
    <!-- Generator: Sketch 57 (83077) - https://sketch.com -->
    <g id="三足金乌" stroke="none" stroke-width="1" fill="none" fill-rule="evenodd">
        <g id="首页-城市选择备份-18" transform="translate(-95.000000, -921.000000)">
            <g id="在跑备份" transform="translate(95.000000, 921.000000)">
                <path d="M17.5,41 C20.5375661,41 23,43.4624339 23,46.5 C23,49.5375661 20.5375661,52 17.5,52 C14.4624339,52 12,49.5375661 12,46.5 C12,43.4624339 14.4624339,41 17.5,41 Z M42.5,41 C45.5375661,41 48,43.4624339 48,46.5 C48,49.5375661 45.5375661,52 42.5,52 C39.4624339,52 37,49.5375661 37,46.5 C37,43.4624339 39.4624339,41 42.5,41 Z" id="形状结合" fill="#FFFFFF"></path>
                <path d="M6.43647207,-1.84030569e-12 C2.89505207,-1.84030569e-12 -0.000600950767,2.89297567 -1.42108547e-14,6.44062347 L-1.42108547e-14,46.9760413 C-0.00120673592,47.5420975 0.225356911,48.086452 0.626992466,48.487936 C1.02983959,48.8876115 1.57746937,49.1130695 2.14569584,49.1106582 C2.71513388,49.1130695 3.26215787,48.8876115 3.66439922,48.487936 C4.06785213,48.086452 4.29380999,47.5427004 4.29259842,46.9760413 L4.29259842,6.44062347 C4.29259842,5.24641951 5.26064309,4.2704396 6.43768364,4.2704396 L37.5750404,4.2704396 C38.1596231,4.27285092 38.6339529,4.74426308 38.636376,5.32659575 L38.636376,12.8227725 C38.636376,12.9270619 38.6818099,13.0186919 38.6933198,13.1223785 C38.7157339,13.2712772 38.7290611,13.4201759 38.7853992,13.5696775 C38.8320446,13.7077253 38.9120082,13.810809 38.9822793,13.9259493 C39.0483099,14.0441038 39.1246388,14.1544215 39.2118719,14.2587109 C39.3154612,14.3623974 39.4420703,14.4425737 39.5698909,14.5336008 C39.6504603,14.5908696 39.7195199,14.6831024 39.8115992,14.7289174 L53.8985271,21.7548877 C55.0979817,22.6500885 55.7086131,23.9594328 55.7086131,25.6238433 L55.7086131,47.1146919 C55.7086131,47.681351 55.9333594,48.2251026 56.3368123,48.6265867 C56.7390537,49.0262622 57.2854719,49.2505145 57.8549099,49.2499129 C58.4237422,49.2505145 58.9707662,49.0262622 59.3730075,48.6265867 C59.7752489,48.2251026 60.0012067,47.681351 60,47.1146919 L60,25.6238433 C60,22.5247001 58.6624215,19.8837069 56.2392809,18.1849352 C56.154471,18.1246523 56.0660264,18.0710005 55.973947,18.0233771 L42.9259407,11.503783 L42.9259407,5.32719858 C42.9259407,2.38901075 40.5264257,-1.84030569e-12 37.5732231,-1.84030569e-12 L6.43647207,-1.84030569e-12 Z" id="路径" fill="#2F448A"></path>
                <path d="M42.6733283,38.1030034 C47.5171863,38.1030034 51.4632708,42.0298305 51.4632708,46.85005 C51.4632708,51.6841346 47.5177921,55.6097561 42.6733283,55.6097561 C38.7156926,55.6097561 35.3973683,52.9774778 34.300947,49.3873792 L34.2280775,49.1353742 L25.7482969,49.1353742 C24.7342126,52.8536226 21.3539314,55.6097561 17.2933536,55.6097561 C12.4476781,55.6097561 8.50219943,51.6841346 8.50219943,46.8621066 C8.50159365,42.0400786 12.4476781,38.1030034 17.292142,38.1030034 C21.3537026,38.1030034 24.7642867,40.868831 25.7649968,44.5972006 L25.8294721,44.852878 L34.1359981,44.852878 C35.047099,40.9839224 38.5200653,38.1030034 42.6733283,38.1030034 Z M42.6733283,42.3613864 C40.1890033,42.3644005 38.1765851,44.366998 38.1741619,46.8379934 C38.1741619,49.319237 40.1926381,51.3284656 42.6733283,51.3284656 C45.1522011,51.3284656 47.1718888,49.319237 47.1718888,46.8379934 C47.1682541,44.366998 45.1558358,42.3644005 42.6733283,42.3613864 Z M17.292142,42.3613864 C14.8084229,42.3650034 12.7966104,44.3682036 12.7935814,46.8398019 C12.7966104,49.3095917 14.8084229,51.3121892 17.292142,51.3158062 C19.7764669,51.3133949 21.7882794,49.3107974 21.7919141,46.8398019 C21.7894909,44.3682036 19.7764669,42.3644005 17.292142,42.3613864 Z" id="形状结合" fill="#2F448A"></path>
                <path d="M40.7814612,32.0289107 C40.2108116,32.0307083 39.665605,31.806456 39.2627579,31.4061776 C38.8599107,31.0046936 38.6339529,30.460942 38.6351596,29.8948857 L38.6351596,21.3534037 C38.6339529,20.7861417 38.8599107,20.2435957 39.2627579,19.8427145 C39.665605,19.4412305 40.2108116,19.217581 40.7814612,19.217581 C41.3496877,19.217581 41.8961059,19.4412305 42.2995588,19.8427145 C42.7024059,20.2435957 42.9271522,20.7861417 42.9259407,21.3534037 L42.9259407,27.7596659 L49.3636195,27.7596659 C49.9336633,27.7590631 50.4794757,27.9833154 50.8823228,28.3841966 C51.2845642,28.7838721 51.510522,29.3276237 51.5093153,29.8948857 C51.510522,30.460942 51.2845642,31.0046936 50.8823228,31.4061776 C50.4794757,31.806456 49.9336633,32.0307083 49.3636195,32.0289107 L40.7814612,32.0289107 Z" id="路径" fill="#FFA000"></path>
            </g>
        </g>
    </g>
</svg>