<?xml version="1.0" encoding="UTF-8"?>
<svg width="50px" height="53px" viewBox="0 0 50 53" version="1.1" xmlns="http://www.w3.org/2000/svg" xmlns:xlink="http://www.w3.org/1999/xlink">
    <!-- Generator: Sketch 57 (83077) - https://sketch.com -->
    <defs>
        <polygon id="path-1" points="11.19305 0.000526474504 36.80695 0.000526474504 36.80695 25.9334758 11.19305 25.9334758"></polygon>
    </defs>
    <g id="三足金乌" stroke="none" stroke-width="1" fill="none" fill-rule="evenodd">
        <g id="编组-3备份">
            <g id="编组-6" transform="translate(0.000000, 0.488437)">
                <path d="M50,52.5115633 L0,52.5115633 L0,45.9919655 C0,36.3278757 8.13175676,28.4206542 18.0702703,28.4206542 L31.9297297,28.4206542 C41.8682432,28.4206542 50,36.3278757 50,45.9919655 L50,52.5115633 Z" id="Fill-1" fill="#2F448A"></path>
                <mask id="mask-2" fill="white">
                    <use xlink:href="#path-1"></use>
                </mask>
                <g id="Clip-4"></g>
                <path d="M24,20.606212 C21.2986,20.606212 19.10875,18.3890962 19.10875,15.6540612 C19.10875,15.6264213 19.112,15.5994395 19.11265,15.5717996 L28.88735,15.5717996 C28.888,15.5994395 28.89125,15.6264213 28.89125,15.6540612 C28.89125,18.3890962 26.7014,20.606212 24,20.606212 M24,8.04689648e-13 C16.9267,8.04689648e-13 11.19305,5.80569756 11.19305,12.967067 C11.19305,20.1277783 16.9267,25.9334758 24,25.9334758 C31.0733,25.9334758 36.80695,20.1277783 36.80695,12.967067 C36.80695,5.80569756 31.0733,8.04689648e-13 24,8.04689648e-13" id="Fill-3" fill="#2F448A" mask="url(#mask-2)"></path>
            </g>
        </g>
    </g>
</svg>