<?xml version="1.0" encoding="UTF-8"?>
<svg width="50px" height="53px" viewBox="0 0 50 53" version="1.1" xmlns="http://www.w3.org/2000/svg" xmlns:xlink="http://www.w3.org/1999/xlink">
    <!-- Generator: Sketch 57 (83077) - https://sketch.com -->
    <defs>
        <polygon id="path-1" points="0.19305 0.488963193 25.80695 0.488963193 25.80695 26.4219125 0.19305 26.4219125"></polygon>
    </defs>
    <g id="三足金乌" stroke="none" stroke-width="1" fill="none" fill-rule="evenodd">
        <g id="首页-城市选择备份-20" transform="translate(-569.000000, -1246.000000)">
            <g id="编组-3" transform="translate(569.000000, 1246.000000)">
                <path d="M50,53 L0,53 L0,46.4804022 C0,36.8163124 8.13175676,28.9090909 18.0702703,28.9090909 L31.9297297,28.9090909 C41.8682432,28.9090909 50,36.8163124 50,46.4804022 L50,53 Z" id="Fill-1" fill="#DDE2EE"></path>
                <g id="编组" transform="translate(11.000000, 0.000000)">
                    <mask id="mask-2" fill="white">
                        <use xlink:href="#path-1"></use>
                    </mask>
                    <g id="Clip-4"></g>
                    <path d="M13,21.0946487 C10.2986,21.0946487 8.10875,18.8775329 8.10875,16.1424979 C8.10875,16.114858 8.112,16.0878762 8.11265,16.0602363 L17.88735,16.0602363 C17.888,16.0878762 17.89125,16.114858 17.89125,16.1424979 C17.89125,18.8775329 15.7014,21.0946487 13,21.0946487 M13,0.488436718 C5.9267,0.488436718 0.19305,6.29413428 0.19305,13.4555037 C0.19305,20.616215 5.9267,26.4219125 13,26.4219125 C20.0733,26.4219125 25.80695,20.616215 25.80695,13.4555037 C25.80695,6.29413428 20.0733,0.488436718 13,0.488436718" id="Fill-3" fill="#DDE2EE" mask="url(#mask-2)"></path>
                </g>
            </g>
        </g>
    </g>
</svg>