<?xml version="1.0" encoding="UTF-8"?>
<svg width="20px" height="30px" viewBox="0 0 20 30" version="1.1" xmlns="http://www.w3.org/2000/svg" xmlns:xlink="http://www.w3.org/1999/xlink">
    <!-- Generator: Sketch 57 (83077) - https://sketch.com -->
    <title>编组@1x</title>
    <desc>Created with Sketch.</desc>
    <defs>
        <polygon id="path-1" points="0.000115942029 0.287681518 19.9866667 0.287681518 19.9866667 29.1666667 0.000115942029 29.1666667"></polygon>
    </defs>
    <g id="三足金乌" stroke="none" stroke-width="1" fill="none" fill-rule="evenodd">
        <g id="登陆" transform="translate(-92.000000, -733.000000)">
            <g id="编组" transform="translate(92.000000, 733.000000)">
                <g>
                    <mask id="mask-2" fill="white">
                        <use xlink:href="#path-1"></use>
                    </mask>
                    <g id="Clip-2"></g>
                    <path d="M16.6024348,27.4562871 L3.38417391,27.4562871 C2.47721739,27.4562871 1.71692754,26.7233663 1.71692754,25.7949422 L1.71692754,22.4231601 L18.2702609,22.4231601 L18.2702609,25.7949422 C18.2702609,26.6991089 17.5346087,27.4562871 16.6024348,27.4562871 M3.38417391,1.99811881 L16.6024348,1.99811881 C17.509971,1.99811881 18.2702609,2.7310396 18.2702609,3.6594637 L18.2702609,20.7130116 L1.71692754,20.7130116 L1.71692754,3.63520627 C1.71692754,2.7310396 2.47721739,1.99811881 3.38417391,1.99811881 M16.6024348,0.287681518 L3.38417391,0.287681518 C1.52069565,0.287681518 0.000115942029,1.80261551 0.000115942029,3.6594637 L0.000115942029,25.7949422 C0.000115942029,27.6517904 1.52069565,29.1667244 3.38417391,29.1667244 L16.6024348,29.1667244 C18.4662029,29.1667244 19.9867826,27.6517904 19.9867826,25.7949422 L19.9867826,3.63520627 C19.9867826,1.77778053 18.4662029,0.287681518 16.6024348,0.287681518" id="Fill-1" fill="#7F8FBD" mask="url(#mask-2)"></path>
                </g>
                <path d="M10.7931677,24.1666667 L8.37320405,24.1666667 C7.89900205,24.1666667 7.5,24.7378419 7.5,25.4162445 C7.5,26.0946471 7.89900205,26.6666667 8.37320405,26.6666667 L10.7931677,26.6666667 C11.2673697,26.6666667 11.6666667,26.0946471 11.6666667,25.4162445 C11.6666667,24.7378419 11.2924364,24.1666667 10.7931677,24.1666667" id="Fill-3" fill="#7F8FBD"></path>
            </g>
        </g>
    </g>
</svg>